PathFileType	4	(X/Y/Z)	C:\Users\Biomechanik\SynologyDrive\AlexP\Athlete_03\Athlete_3_25_03_31\Walking_10\marker_experimental.trc
DataRate	CameraRate	NumFrames	NumMarkers	Units	OrigDataRate	OrigDataStartFrame	OrigNumFrames
200.000000	200.000000	4	53	mm	200.000000	111	223
Frame#	Time	GLAB			RFHD			LFHD			C7			T6			SPINMOL			SPINM2			SPINM3			T12			BELTOL			BELT2			BELT3			SACROL			SACR2			SACR3			LTHOL			LTH2			LTH3			LSHAOL			LSHA2			LSHA3			LHEE			LTOE			LM5			RTHOL			RTH2			RTH3			RSHAOL			RSHA2			RSHA3			RHEE			RTOE			RM5			STRN			XIPH			LACR			LUAOL			LUA2			LUA3			LLAOL			LLA2			LLA3			LWRR			LWRU			RACR			RUAOL			RUA2			RUA3			RLAOL			RLA2			RLA3			RWRR			RWRU			
		X1	Y1	Z1	X2	Y2	Z2	X3	Y3	Z3	X4	Y4	Z4	X5	Y5	Z5	X6	Y6	Z6	X7	Y7	Z7	X8	Y8	Z8	X9	Y9	Z9	X10	Y10	Z10	X11	Y11	Z11	X12	Y12	Z12	X13	Y13	Z13	X14	Y14	Z14	X15	Y15	Z15	X16	Y16	Z16	X17	Y17	Z17	X18	Y18	Z18	X19	Y19	Z19	X20	Y20	Z20	X21	Y21	Z21	X22	Y22	Z22	X23	Y23	Z23	X24	Y24	Z24	X25	Y25	Z25	X26	Y26	Z26	X27	Y27	Z27	X28	Y28	Z28	X29	Y29	Z29	X30	Y30	Z30	X31	Y31	Z31	X32	Y32	Z32	X33	Y33	Z33	X34	Y34	Z34	X35	Y35	Z35	X36	Y36	Z36	X37	Y37	Z37	X38	Y38	Z38	X39	Y39	Z39	X40	Y40	Z40	X41	Y41	Z41	X42	Y42	Z42	X43	Y43	Z43	X44	Y44	Z44	X45	Y45	Z45	X46	Y46	Z46	X47	Y47	Z47	X48	Y48	Z48	X49	Y49	Z49	X50	Y50	Z50	X51	Y51	Z51	X52	Y52	Z52	X53	Y53	Z53	

112	0.555	279.4241333007811	1556.074829101562	199.587142944336	230.543487548828	1587.9775390625	262.4686584472657	238.1089324951171	1577.30615234375	124.5036544799805	47.94283294677722	1404.164916992188	196.3343353271484	-14.25543975830089	1238.21240234375	197.9447326660156	-22.73880767822276	1198.073364257812	177.4521789550781	-29.94883537292492	1191.848754882812	226.9346771240234	-21.30160713195811	1134.090454101562	194.6244049072266	-0.6756791472436013	1066.393188476562	197.4576263427734	-34.37404632568369	1029.591186523438	175.548583984375	-38.14539337158214	1028.875732421875	226.1629486083984	-41.69493103027353	967.9862060546875	198.1345367431641	-21.79810333251962	923.4844360351562	170.1031188964844	-29.25322914123545	925.255615234375	221.7848663330078	-44.3543128967286	865.9461059570312	194.8398132324219	174.5343322753906	637.0650024414062	20.90370368957523	152.670166015625	566.8967895507812	48.92592620849612	198.0614471435547	582.5614013671875	35.47487258911136	305.143310546875	306.714599609375	27.69252967834478	288.6070861816406	230.5308837890625	42.52662277221685	332.9213256835938	251.5989074707032	33.23576736450202	361.1709289550781	49.71391677856447	114.1092681884766	570.3678588867188	115.4205627441407	112.5893478393556	542.0870971679688	71.81635284423831	19.63966941833506	-27.61329650878918	689.6350708007812	388.9974975585938	5.941778659820444	619.2449340820312	404.3362426757812	-36.65514373779308	629.466064453125	379.7787475585938	-170.3219299316407	371.5690612792969	376.5880737304687	-171.5219726562501	292.6289367675781	370.9815063476562	-208.7487030029298	324.8778076171875	361.8264160156249	-336.4555053710938	148.1390686035156	255.9203948974609	-163.536605834961	41.47187805175781	252.8217315673828	-203.0876007080079	42.06238555908202	360.1673583984374	217.2828826904296	1298.909301757812	199.4208984375	228.3834838867187	1154.8408203125	207.2910919189453	123.9447555541991	1357.3662109375	21.73484230041506	85.07546997070307	1202.349609375	-74.94787597656249	57.99777984619135	1143.783447265625	-90.10479736328124	106.4689254760742	1139.963989257812	-74.40234374999999	41.55451202392575	945.6478271484375	-118.5353851318359	-12.59642124176029	891.14013671875	-98.86228179931641	31.5184516906738	884.78515625	-121.371467590332	23.46014785766599	781.5458984375	-130.75146484375	71.72265624999997	766.229736328125	-70.35462188720702	134.4554901123045	1361.359497070312	366.6352233886719	143.5606536865233	1219.524658203125	470.7885131835938	180.1681213378905	1164.5908203125	478.5063781738282	131.7775268554686	1159.491455078125	495.5986022949219	259.1307067871092	968.2342529296875	515.78271484375	338.6502380371092	963.5841674804688	518.6432495117189	306.1149597167967	928.9716796875	503.7399291992188	387.4841918945311	890.3306274414062	489.8446044921876	411.6328735351561	918.6178588867188	417.1408081054688	
113	0.5600000000000001	287.1934509277342	1555.985473632812	198.0909118652344	238.2445220947264	1587.945556640625	260.8947448730469	245.9686737060546	1577.16845703125	122.942741394043	55.83636093139636	1403.922241210938	194.6673583984375	-6.171831607818715	1237.9248046875	196.5901489257812	-14.60095310211192	1197.759765625	176.1375274658203	-21.76857948303234	1191.557250976562	225.6129608154297	-13.1087064743043	1133.8046875	193.3743133544922	7.603063106536763	1066.155395507812	196.2993469238281	-25.81071472167978	1029.326171875	174.5121765136719	-29.4866123199464	1028.558227539062	225.0913391113281	-33.07041931152353	967.7088012695312	197.0760650634766	-13.55112743377694	923.2146606445312	169.1760101318359	-20.9588623046876	924.907470703125	220.847900390625	-35.76757812500009	865.5407104492188	193.8911590576172	183.8688507080078	637.7376708984375	20.06584548950199	161.6927490234375	567.2857055664062	47.19660949707034	207.2777404785156	583.120849609375	34.46403503417972	312.0012512207031	306.6642456054688	27.34251213073736	294.3646545410156	230.7386016845703	42.03031539916998	338.9642639160156	251.1701354980469	33.06292724609381	363.079345703125	49.8690872192383	114.275016784668	573.6666870117188	110.3688354492188	113.3036651611329	544.4037475585938	67.68853759765628	20.28550148010264	-19.40791893005382	689.3899536132812	388.2099609375	14.10647583007801	619.0711059570312	403.9168090820312	-28.36570358276378	629.1923828125	379.1108703613281	-163.469451904297	372.997802734375	376.8886108398437	-165.824432373047	294.0919189453125	371.2879333496093	-202.5301361083985	326.8748779296875	362.0285644531249	-332.4062194824219	152.5544281005859	256.5466308593749	-163.5293731689454	41.21274948120116	252.8653259277343	-202.1905975341797	42.37163925170897	360.3463745117187	225.3099670410155	1298.892822265625	197.9860534667969	236.7569274902343	1154.89697265625	206.0347900390626	131.8912200927734	1356.870361328125	20.16804122924807	93.14693450927729	1201.594360351562	-76.18541717529295	66.12626647949213	1142.989379882812	-91.27130889892577	114.5873565673828	1139.215087890625	-75.51847839355467	49.75778198242184	944.7913818359375	-119.2700805664062	-4.491972446441686	890.375244140625	-99.59633636474609	39.66704177856442	883.928466796875	-121.9860153198242	31.53280067443846	780.6908569335938	-131.1844329833984	79.59297943115232	765.42919921875	-70.58864593505858	142.2330322265624	1361.389526367188	365.129638671875	151.0843048095701	1219.50927734375	469.2963562011719	187.4957275390623	1164.447998046875	477.0581359863282	139.0894622802733	1159.527587890625	494.1549072265625	265.6764831542967	967.779052734375	514.5015869140625	345.1529846191405	962.8895874023438	517.7111206054689	312.5899353027342	928.4088745117188	502.5911254882813	393.9000854492186	889.5377807617188	489.0205993652344	418.3771972656249	917.8255004882812	416.3741760253907	
114	0.5650000000000001	294.9714965820311	1556	196.6053771972657	245.9508361816405	1588.008544921875	259.3307800292969	253.843536376953	1577.145874023438	121.3929290771485	63.74121475219714	1403.779296875	192.9823303222656	1.935883283615001	1237.724975585938	195.2044677734375	-6.43451356887828	1197.533081054688	174.7934112548828	-13.57296752929699	1191.356079101562	224.2640075683594	-4.88475370407115	1133.608032226562	192.0968475341797	15.89941215515127	1066.018920898438	195.1293792724609	-17.18100929260263	1029.181396484375	173.5182342529297	-20.7610206604005	1028.365234375	224.0674743652344	-24.3781452178956	967.5523071289062	196.0595245361328	-5.28424549102792	923.03515625	168.2624359130859	-12.63041114807139	924.631103515625	219.9222259521484	-27.12065315246591	865.2081298828125	192.9455261230469	193.0057373046875	638.4850463867188	19.24392890930179	170.5502014160156	567.772216796875	45.55013275146487	216.3037872314453	583.7552490234375	33.46377944946293	318.8558959960938	306.7910461425781	26.86035728454596	300.1037902832031	231.1331024169922	41.32862854003912	344.9834594726562	250.9176177978516	32.75826644897467	364.7657165527344	50.1943054199219	114.3227005004884	576.7235107421875	105.3202209472657	113.9621963500978	546.4767456054688	63.58050918579105	20.86630821228037	-11.02867126464855	689.0950927734375	387.3791809082031	22.49737548828114	618.876953125	403.4858703613281	-19.8454875946046	628.8562622070312	378.4153747558594	-156.2753143310548	374.4420776367188	377.1905212402343	-159.8081817626954	295.5878601074219	371.6219482421874	-195.9640197753907	328.9023132324219	362.2120056152343	-327.9127807617188	157.1343536376953	257.1258544921874	-163.4586639404297	40.96684646606445	252.8969421386718	-201.2241821289063	42.75853347778319	360.4974670410156	233.3483276367186	1298.993041992188	196.5229644775391	245.1614990234374	1155.071899414062	204.7400207519532	139.8456268310546	1356.474243164062	18.5755481719971	101.2676925659179	1200.925537109375	-77.44163513183592	74.31773376464838	1142.274658203125	-92.45609283447264	122.7690429687499	1138.558349609375	-76.64936065673825	58.079963684082	943.9988403320312	-120.0086135864258	3.748652219772303	889.6583251953125	-100.331184387207	47.9544525146484	883.133056640625	-122.5973129272461	39.78397369384763	779.8928833007812	-131.6048583984375	87.63645172119138	764.7094116210938	-70.80206298828124	150.0240020751952	1361.500244140625	363.6065979003906	158.5946044921873	1219.563110351562	467.7854614257813	194.7919006347655	1164.366577148438	475.6013793945313	146.3689117431639	1159.646606445312	492.70703125	272.104034423828	967.3446044921875	513.2264404296875	351.532745361328	962.1686401367188	516.7974243164064	318.9221191406248	927.8355102539062	501.4628295898438	400.1508178710936	888.6810302734375	488.2348937988282	424.9699401855468	916.932373046875	415.6376647949219	
115	0.5700000000000001	302.7564697265623	1556.1201171875	195.1323242187501	253.6605529785155	1588.16748046875	257.7791137695313	261.7313537597655	1577.240112304688	119.8562316894532	71.65573120117176	1403.739379882812	191.2835540771484	10.06365776062001	1237.614501953125	193.7926940917969	1.75498485565175	1197.395874023438	173.4265747070312	-5.367076873779411	1191.248779296875	222.8936614990234	3.364053964614764	1133.502807617188	190.7999267578125	24.20342636108388	1065.987060546875	193.9587097167969	-8.501571655273532	1029.167846679688	172.5738067626953	-11.98617744445811	1028.308471679688	223.0985107421875	-15.63752365112314	967.5280151367188	195.0922393798828	2.99410438537589	922.948486328125	167.3693695068359	-4.273826599121191	924.4260864257812	219.0147552490234	-18.42587852478036	864.9515991210938	192.00634765625	201.9283905029297	639.3065185546875	18.43224716186527	179.2252197265625	568.3572387695312	43.983512878418	225.1233825683593	584.4658813476562	32.47114181518559	325.7079772949219	307.0981140136719	26.23741912841803	305.8275756835938	231.7192687988282	40.41099548339849	350.9802856445312	250.8475646972657	32.3140602111817	366.270263671875	50.67097091674807	114.2612380981446	579.5477905273438	100.3471374511719	114.5583801269532	548.330322265625	59.55406188964847	21.37323951721201	-2.474195718765372	688.7446899414062	386.509521484375	31.11782073974598	618.6589965820312	403.0513610839844	-11.09099102020275	628.451171875	377.7003479003906	-148.7213897705079	375.8976745605469	377.4969482421875	-153.453826904297	297.1135864257812	371.9885559082031	-189.029769897461	330.9550476074219	362.3785400390624	-322.9444580078126	161.8801879882812	257.6532287597656	-163.2984313964844	40.75014114379882	252.9122619628906	-200.1796112060547	43.24473190307616	360.6166076660156	241.3932342529296	1299.212524414062	195.0349426269532	253.5875549316405	1155.366333007812	203.4098510742188	147.8068542480468	1356.1826171875	16.96171569824222	109.4377365112304	1200.349975585938	-78.7139434814453	82.57172393798822	1141.646606445312	-93.65658569335936	131.0134124755859	1138.000366210938	-77.79219818115232	66.52044677734372	943.2772216796875	-120.7503051757812	12.12555408477779	888.9957885742188	-101.0660858154297	56.38056182861325	882.4058837890625	-123.2053985595703	48.21431732177732	779.1587524414062	-132.0133056640625	95.85507965087888	764.0778198242188	-70.99628448486327	157.8258056640624	1361.695678710938	362.0703125000001	166.0876312255858	1219.68994140625	466.2588195800782	202.0538482666014	1164.351318359375	474.1387634277344	153.6131744384764	1159.850463867188	491.2553100585938	278.4139404296873	966.9378662109375	511.9585571289063	357.7897644042967	961.428466796875	515.9024047851564	325.1112365722655	927.2576904296875	500.3577575683594	406.2354431152342	887.76708984375	487.4894409179688	431.4088745117186	915.9407958984375	414.9334411621094	
